# xmcd
#
# Track frame offsets:
#  150
#  15949
#  30327
#  54739
#  74823
#  93847
#  114237
#  134077
#  150409
#  165443
#  187721
#  206608
#  228635
#  248446
#  263372
#  283479
#  300095
#  322972
#  339732
#
# Disc length: 4751 seconds
#
# Revision: 0
# Processed by: cddbd v1.4PL0 Copyright (c) Steve Scherf et al.
# Submitted via: AltoMP3_Maker 3.0
#
DISCID=f2128d13
DTITLE=Сборник - Лучший популярный
DYEAR=1900
DGENRE=
TTITLE0=Я сошла с ума
TTITLE1=Попытка номер 5
TTITLE2=Не обижай меня
TTITLE3=Между мной и тобой
TTITLE4=Думала
TTITLE5=Это сильнее меня
TTITLE6=Малолетка
TTITLE7=Глупые люди
TTITLE8=Восьмиклассница
TTITLE9=Реви
TTITLE10=Это здорово
TTITLE11=Новогодняя 2001
TTITLE12=Серебро
TTITLE13=Мой сон
TTITLE14=Долгие дни
TTITLE15=Там где весна
TTITLE16=Солдат
TTITLE17=Просто дождь
TTITLE18=До свидания
EXTD=
EXTT0=
EXTT1=
EXTT2=
EXTT3=
EXTT4=
EXTT5=
EXTT6=
EXTT7=
EXTT8=
EXTT9=
EXTT10=
EXTT11=
EXTT12=
EXTT13=
EXTT14=
EXTT15=
EXTT16=
EXTT17=
EXTT18=
PLAYORDER=
